<?xml version="1.0" encoding="UTF-8" standalone="no"?>
<!DOCTYPE svg PUBLIC "-//W3C//DTD SVG 20010904//EN"
              "http://www.w3.org/TR/2001/REC-SVG-20010904/DTD/svg10.dtd">


<svg xmlns="http://www.w3.org/2000/svg"
     width="6.4in" height="3.6in"
     viewBox="0 0 320 320"><path fill="#ffffff" d="M136.4 58.8 L136.4 310.8 L161.20000000000002 293.77066666666667 L161.20000000000002 62.602666666666664 Z "></path> <path fill="#ffffff" d="M167.4 63.55333333333333 L167.4 289.5133333333333 L217 255.45466666666664 L217 71.15866666666666 Z "></path> <path fill="#ffffff" d="M213.9 207.74333333333334 L213.9 257.5833333333333 L269.70000000000005 219.26733333333334 L269.70000000000005 181.92653333333334 Z "></path> <path fill="#ffffff" d="M223.2 72.10933333333332 L223.2 251.19733333333335 L272.8 217.13866666666667 L272.8 79.71466666666666 Z "></path> <path fill="#ffffff" d="M136.4 0 L136.4 50.400000000000006 L161.20000000000002 54.897066666666674 L161.20000000000002 8.663466666666665 Z "></path> <path fill="#ffffff" d="M167.4 10.829333333333338 L167.4 56.02133333333334 L272.8 75.13386666666668 L272.8 47.64906666666667 Z "></path> <path fill="#e8e8e8" d="M136.4 58.8 L136.4 310.8 L111.60000000000001 293.77066666666667 L111.60000000000001 62.602666666666664 Z "></path> <path fill="#e8e8e8" d="M105.4 63.55333333333333 L105.4 289.5133333333333 L55.8 255.45466666666664 L55.8 71.15866666666666 Z "></path> <path fill="#e8e8e8" d="M58.900000000000006 207.74333333333334 L58.900000000000006 257.5833333333333 L3.0999999999999943 219.26733333333334 L3.0999999999999943 181.92653333333334 Z "></path> <path fill="#e8e8e8" d="M49.60000000000001 72.10933333333332 L49.60000000000001 251.19733333333335 L0 217.13866666666667 L0 79.71466666666666 Z "></path> <path fill="#e8e8e8" d="M136.4 0 L136.4 50.400000000000006 L111.60000000000001 54.897066666666674 L111.60000000000001 8.663466666666665 Z "></path> <path fill="#e8e8e8" d="M105.4 10.829333333333338 L105.4 56.02133333333334 L0 75.13386666666668 L0 47.64906666666667 Z "></path> </svg>